#N canvas 74 173 1052 806 12;
#X obj 20 93 mtof;
#X obj 20 252 / 1.232;
#X obj 31 308 phasor~;
#X msg 69 532 1;
#X msg 741 178 54373;
#X msg 82 279 0;
#X obj 169 126 bng 15 250 50 0 empty empty empty 17 7 0 10 -262144
-1 -1;
#X floatatom 152 452 7 0 0 0 - - -;
#X floatatom 356 58 7 0 0 0 - - -;
#X obj 337 170 +;
#X obj 337 137 t b f;
#X obj 26 190 / 44100;
#X obj 386 257 pack;
#X msg 390 577 set \$1 5 \$2 5;
#X obj 390 604 threshold~;
#X obj 26 220 t b f;
#X obj 33 636 *~;
#N canvas 0 0 474 324 envelope 0;
#X obj 22 28 inlet~;
#X obj 21 195 outlet~;
#X obj 23 110 cos~;
#X obj 22 55 -~ 0.5;
#X obj 23 83 *~ 0.5;
#X obj 22 165 clip~ -1 1;
#X obj 18 138 *~ 50;
#X connect 0 0 3 0;
#X connect 2 0 6 0;
#X connect 3 0 4 0;
#X connect 4 0 2 0;
#X connect 5 0 1 0;
#X connect 6 0 5 0;
#X restore 32 354 pd envelope;
#X obj 319 390 + 54373;
#X obj 319 440 + 54373;
#X obj 83 117 sel 0;
#X msg 43 279 0;
#X obj 318 336 f;
#X obj 319 362 * -1;
#X obj 319 415 * -1;
#X msg 708 262 1.232;
#X obj 20 4 inlet;
#X obj 20 29 unpack;
#X obj 151 70 loadbang;
#X obj 356 30 r slength;
#X obj 152 428 r sstart;
#X obj 50 560 +~;
#X obj 127 353 *~;
#X obj 133 531 f;
#X obj 337 108 f;
#X obj 191 604 threshold~ 54350 5 20 5;
#X text 215 453 loop start;
#X text 424 60 loop length;
#X obj 302 83 t b b;
#X obj 98 492 t b b;
#X obj 386 230 t b f;
#X obj -47 172 / 1.27;
#X obj -47 197 dbtorms;
#X msg -47 223 \$1 20;
#X obj -47 248 line~;
#X obj -47 664 *~;
#X obj -48 697 outlet~;
#X text 191 116 bang to reset;
#X text 190 131 sample bounds;
#X text 213 639 resets bounds when;
#X text 215 660 sample ends;
#X text 200 317 sample;
#X text 199 334 length;
#X text 484 604 starts loop;
#X text 385 388 start of end;
#X text 385 403 of sample;
#X text 380 440 length of end;
#X text 382 456 of sample;
#X obj 51 605 tabread4~ sample;
#X obj 607 110 r samplelength;
#X obj 588 207 f;
#X obj 659 223 / 44100;
#X obj 643 284 f;
#X msg 199 567 set \$1 5 20 5;
#X obj 624 345 - 20;
#X obj 581 169 - 2;
#X obj 238 61 r init2;
#X obj 20 119 / 369.9;
#X obj 83 144 t b b b;
#X msg 451 534 0;
#X msg 498 534 1;
#X connect 0 0 67 0;
#X connect 1 0 2 0;
#X connect 2 0 17 0;
#X connect 2 0 32 0;
#X connect 3 0 31 1;
#X connect 4 0 60 1;
#X connect 5 0 2 1;
#X connect 6 0 3 0;
#X connect 6 0 5 0;
#X connect 6 0 60 0;
#X connect 6 0 62 0;
#X connect 6 0 69 0;
#X connect 7 0 33 1;
#X connect 7 0 39 0;
#X connect 8 0 34 1;
#X connect 8 0 38 0;
#X connect 9 0 12 0;
#X connect 9 0 22 1;
#X connect 10 0 9 0;
#X connect 10 1 9 1;
#X connect 11 0 15 0;
#X connect 12 0 13 0;
#X connect 13 0 14 0;
#X connect 14 0 34 0;
#X connect 14 0 33 0;
#X connect 14 0 5 0;
#X connect 15 0 1 0;
#X connect 15 1 1 1;
#X connect 16 0 45 1;
#X connect 17 0 16 0;
#X connect 18 0 24 0;
#X connect 18 0 31 1;
#X connect 19 0 11 0;
#X connect 19 0 32 1;
#X connect 20 0 68 0;
#X connect 20 0 70 0;
#X connect 20 1 41 0;
#X connect 21 0 2 0;
#X connect 22 0 23 0;
#X connect 23 0 18 0;
#X connect 24 0 19 0;
#X connect 25 0 62 1;
#X connect 26 0 27 0;
#X connect 27 0 0 0;
#X connect 27 1 20 0;
#X connect 28 0 6 0;
#X connect 28 0 4 0;
#X connect 28 0 25 0;
#X connect 29 0 8 0;
#X connect 30 0 7 0;
#X connect 31 0 14 0;
#X connect 31 0 35 0;
#X connect 31 0 58 0;
#X connect 32 0 31 0;
#X connect 33 0 31 1;
#X connect 33 0 9 0;
#X connect 33 0 40 0;
#X connect 34 0 11 0;
#X connect 34 0 10 0;
#X connect 34 0 32 1;
#X connect 35 0 6 0;
#X connect 35 0 21 0;
#X connect 38 0 6 0;
#X connect 38 0 21 0;
#X connect 38 1 34 0;
#X connect 39 0 6 0;
#X connect 39 0 21 0;
#X connect 39 1 33 0;
#X connect 40 0 12 0;
#X connect 40 1 12 1;
#X connect 41 0 42 0;
#X connect 42 0 43 0;
#X connect 43 0 44 0;
#X connect 44 0 45 0;
#X connect 45 0 46 0;
#X connect 58 0 16 1;
#X connect 59 0 61 0;
#X connect 59 0 64 0;
#X connect 59 0 65 0;
#X connect 60 0 32 1;
#X connect 60 0 18 1;
#X connect 60 0 19 1;
#X connect 61 0 62 1;
#X connect 62 0 1 1;
#X connect 63 0 35 0;
#X connect 64 0 63 0;
#X connect 65 0 60 0;
#X connect 66 0 6 0;
#X connect 67 0 1 0;
#X connect 68 0 22 0;
#X connect 68 1 5 0;
#X connect 68 2 21 0;
#X connect 69 0 14 1;
#X connect 70 0 14 1;
