#N canvas 195 246 458 308 12;
#N canvas 140 275 462 318 vibrato 0;
#X obj 135 99 osc~;
#X obj 135 71 r vibrate;
#X obj 135 139 *~;
#X obj 136 169 +~ 1;
#X obj 136 196 *~;
#X obj 89 166 +~ 1;
#X obj 274 162 +~ 1;
#X obj 64 18 metro 8;
#X obj 64 -12 tgl 15 0 empty empty empty 17 7 0 10 -262144 -1 -1 1
1;
#X obj 64 115 / 10000;
#X obj 64 48 random 140;
#X obj 64 90 - 70;
#X obj 88 140 sig~;
#X obj 274 93 r portdev;
#X obj 274 133 ADSR2 2;
#X obj 177 98 ADSR2 1;
#X obj 177 41 r vibwth;
#X obj 137 229 s~ V;
#X connect 0 0 2 0;
#X connect 1 0 0 0;
#X connect 2 0 3 0;
#X connect 3 0 4 0;
#X connect 4 0 17 0;
#X connect 5 0 4 0;
#X connect 6 0 4 1;
#X connect 7 0 10 0;
#X connect 8 0 7 0;
#X connect 9 0 12 0;
#X connect 10 0 11 0;
#X connect 11 0 9 0;
#X connect 12 0 5 0;
#X connect 13 0 14 0;
#X connect 14 0 6 0;
#X connect 15 0 2 1;
#X connect 16 0 15 0;
#X restore 26 19 pd vibrato generator;
#N canvas 587 207 478 470 guts 0;
#X obj 10 5 inlet;
#X obj 67 7 inlet;
#X obj 10 28 mtof;
#X obj 217 74 * 6;
#X obj 217 98 sig~;
#X obj 10 63 sig~;
#X obj 10 110 *~;
#X obj 237 120 r~ V;
#X obj 30 86 r~ V;
#X obj 218 145 *~;
#X obj 12 232 +~;
#X obj 12 262 osc~;
#X obj 51 260 ADSR2 3;
#X obj 12 287 *~;
#X obj 13 335 +~;
#X obj 12 364 outlet~;
#X obj 217 232 +~;
#X obj 216 264 osc~;
#X obj 217 305 *~;
#X obj 260 263 ADSR2 5;
#X obj 260 239 * 0.2;
#X obj 86 70 r fm;
#X obj 86 97 sig~;
#X obj 86 123 *~;
#X obj 130 95 r~ V;
#X obj 86 151 osc~;
#X obj 85 192 *~;
#X obj 127 152 ADSR2 4;
#X obj 127 193 *~ 0.68;
#X connect 0 0 2 0;
#X connect 1 0 12 0;
#X connect 1 0 20 0;
#X connect 1 0 27 0;
#X connect 2 0 3 0;
#X connect 2 0 5 0;
#X connect 3 0 4 0;
#X connect 4 0 9 0;
#X connect 5 0 6 0;
#X connect 6 0 10 0;
#X connect 7 0 9 1;
#X connect 8 0 6 1;
#X connect 9 0 16 1;
#X connect 10 0 11 0;
#X connect 11 0 13 0;
#X connect 12 0 13 1;
#X connect 13 0 14 0;
#X connect 14 0 15 0;
#X connect 16 0 17 0;
#X connect 17 0 18 0;
#X connect 18 0 14 1;
#X connect 19 0 18 1;
#X connect 20 0 19 0;
#X connect 21 0 22 0;
#X connect 22 0 23 0;
#X connect 23 0 25 0;
#X connect 24 0 23 1;
#X connect 25 0 26 0;
#X connect 26 0 10 1;
#X connect 26 0 28 0;
#X connect 27 0 26 1;
#X connect 28 0 16 0;
#X restore 30 94 pd guts;
#N canvas 686 240 454 304 volume 0;
#X obj 13 10 inlet~;
#X obj 14 140 *~;
#X msg 82 88 \$1 20;
#X obj 82 63 dbtorms;
#X obj 82 36 r volume;
#X obj 82 113 line~;
#X obj 13 186 dac~;
#X connect 0 0 1 0;
#X connect 1 0 6 0;
#X connect 1 0 6 1;
#X connect 2 0 5 0;
#X connect 3 0 2 0;
#X connect 4 0 3 0;
#X connect 5 0 1 1;
#X restore 31 125 pd volume;
#X floatatom 221 17 5 0 0 0 - - -;
#X obj 224 48 s volume;
#X obj 30 59 fakenotein;
#X floatatom 374 79 5 0 0 0 - - -;
#X obj 374 103 s vibwth;
#X obj 294 103 s vibrate;
#X floatatom 294 79 5 0 0 0 - - -;
#X floatatom 242 77 5 0 0 0 - - -;
#X obj 214 102 s portdev;
#X floatatom 115 313 5 0 0 0 - - -;
#X floatatom 163 315 5 0 0 0 - - -;
#X floatatom 68 314 5 0 0 0 - - -;
#X floatatom 22 314 5 0 0 0 - - -;
#X floatatom 322 319 5 0 0 0 - - -;
#X floatatom 370 321 5 0 0 0 - - -;
#X floatatom 275 320 5 0 0 0 - - -;
#X floatatom 229 320 5 0 0 0 - - -;
#X floatatom 114 259 5 0 0 0 - - -;
#X floatatom 162 261 5 0 0 0 - - -;
#X floatatom 67 260 5 0 0 0 - - -;
#X floatatom 21 260 5 0 0 0 - - -;
#X floatatom 320 260 5 0 0 0 - - -;
#X floatatom 368 262 5 0 0 0 - - -;
#X floatatom 273 261 5 0 0 0 - - -;
#X floatatom 227 261 5 0 0 0 - - -;
#X floatatom 314 197 5 0 0 0 - - -;
#X floatatom 362 199 5 0 0 0 - - -;
#X floatatom 267 198 5 0 0 0 - - -;
#X floatatom 221 198 5 0 0 0 - - -;
#X obj 220 219 s 1A;
#X obj 268 218 s 1D;
#X obj 362 221 s 1R;
#X obj 315 220 s 1S;
#X obj 20 281 s 2A;
#X obj 66 280 s 2D;
#X obj 114 282 s 2S;
#X obj 161 283 s 2R;
#X obj 226 282 s 3A;
#X obj 274 281 s 3D;
#X obj 321 283 s 3S;
#X obj 368 284 s 3R;
#X obj 21 335 s 4A;
#X obj 69 334 s 4D;
#X obj 116 336 s 4S;
#X obj 161 337 s 4R;
#X obj 228 341 s 5A;
#X obj 277 340 s 5D;
#X obj 323 342 s 5S;
#X obj 370 343 s 5R;
#X floatatom 61 183 5 0 0 0 - - -;
#X obj 61 207 s fm;
#X obj 133 89 sel 0;
#X msg 152 130 3;
#X connect 1 0 2 0;
#X connect 3 0 4 0;
#X connect 5 0 1 0;
#X connect 5 1 1 1;
#X connect 5 1 54 0;
#X connect 6 0 7 0;
#X connect 9 0 8 0;
#X connect 10 0 11 0;
#X connect 12 0 46 0;
#X connect 13 0 47 0;
#X connect 14 0 45 0;
#X connect 15 0 44 0;
#X connect 16 0 50 0;
#X connect 17 0 51 0;
#X connect 18 0 49 0;
#X connect 19 0 48 0;
#X connect 20 0 38 0;
#X connect 21 0 39 0;
#X connect 22 0 37 0;
#X connect 23 0 36 0;
#X connect 24 0 42 0;
#X connect 25 0 43 0;
#X connect 26 0 41 0;
#X connect 27 0 40 0;
#X connect 28 0 35 0;
#X connect 29 0 34 0;
#X connect 30 0 33 0;
#X connect 31 0 32 0;
#X connect 52 0 53 0;
#X connect 54 0 10 0;
#X connect 54 1 55 0;
#X connect 55 0 10 0;
