#N canvas 302 98 478 662 12;
#X obj 13 6 inlet;
#X obj 13 31 t f b;
#X obj 13 351 mtof;
#X obj 13 390 osc~;
#X obj 52 390 * 2;
#X obj 128 392 * 3;
#X obj 192 391 * 4;
#X obj 52 413 osc~;
#X obj 128 415 osc~;
#X obj 192 414 osc~;
#X obj 276 417 osc~;
#X obj 276 394 * 5;
#X obj 53 485 *~;
#X obj 192 488 *~;
#X obj 276 488 *~;
#X obj 128 485 *~;
#X obj 72 461 / 100;
#X obj 295 461 / 100;
#X obj 211 464 / 100;
#X obj 147 460 / 100;
#X obj 14 523 +~;
#X obj 15 546 +~;
#X obj 15 569 +~;
#X obj 15 594 +~;
#X obj 105 352 del;
#X obj 100 35 bng 15 250 50 0 empty empty empty 17 7 0 10 -262144 -1
-1;
#X obj 48 650 line~;
#X obj 16 700 *~;
#X obj 124 32 r rhythm;
#X msg 48 621 1 200;
#X msg 105 621 0 500;
#X obj 16 757 throw~ synth1;
#X obj 72 438 r 2nd;
#X obj 147 437 r 3rd;
#X obj 211 440 r 4th;
#X obj 295 439 r 5th;
#X obj 16 728 *~ 0.25;
#X connect 0 0 1 0;
#X connect 0 0 25 0;
#X connect 1 0 2 0;
#X connect 1 1 29 0;
#X connect 2 0 3 0;
#X connect 2 0 4 0;
#X connect 2 0 5 1;
#X connect 2 0 6 0;
#X connect 2 0 11 0;
#X connect 3 0 20 0;
#X connect 4 0 7 0;
#X connect 5 0 8 0;
#X connect 6 0 9 0;
#X connect 7 0 12 0;
#X connect 8 0 15 0;
#X connect 9 0 13 0;
#X connect 10 0 14 0;
#X connect 11 0 10 0;
#X connect 12 0 20 1;
#X connect 13 0 22 1;
#X connect 14 0 23 1;
#X connect 15 0 21 1;
#X connect 16 0 12 1;
#X connect 17 0 14 1;
#X connect 18 0 13 1;
#X connect 19 0 15 1;
#X connect 20 0 21 0;
#X connect 21 0 22 0;
#X connect 22 0 23 0;
#X connect 23 0 27 0;
#X connect 24 0 30 0;
#X connect 25 0 24 0;
#X connect 26 0 27 1;
#X connect 27 0 36 0;
#X connect 28 0 24 1;
#X connect 29 0 26 0;
#X connect 30 0 26 0;
#X connect 32 0 16 0;
#X connect 33 0 19 0;
#X connect 34 0 18 0;
#X connect 35 0 17 0;
#X connect 36 0 31 0;
