#N canvas 772 29 538 731 12;
#X obj 13 6 inlet;
#X obj 13 31 t f b;
#X obj 13 324 mtof;
#X obj 105 325 del;
#X obj 100 35 bng 15 250 50 0 empty empty empty 17 7 0 10 -262144 -1
-1;
#X obj 124 32 r rhythm;
#X obj 48 449 line~;
#X obj 14 486 *~;
#X msg 48 420 1 200;
#X msg 105 420 0 500;
#X obj 14 514 *~ 0.25;
#X obj 14 543 throw~ synth2;
#X obj 13 374 tabosc4~ Waveform;
#X connect 0 0 1 0;
#X connect 0 0 4 0;
#X connect 1 0 2 0;
#X connect 1 1 8 0;
#X connect 2 0 12 0;
#X connect 3 0 9 0;
#X connect 4 0 3 0;
#X connect 5 0 3 1;
#X connect 6 0 7 1;
#X connect 7 0 10 0;
#X connect 8 0 6 0;
#X connect 9 0 6 0;
#X connect 10 0 11 0;
#X connect 12 0 7 0;
