#N canvas 0 0 1427 815 12;
#X obj 7 31 unpack 0 0 0 0 0 0 0 0 0 0 0 0 0 0 0 0 0 0 0 0 0 0 0 0
0 0 0 0 0 0 0 0 0 0 0;
#X obj 34 71 randompitch;
#X obj 10 792 pack 0 0 0 0 0 0 0 0 0 0 0 0 0 0 0 0 0 0 0 0 0 0 0 0
0 0 0 0 0 0 0 0 0 0 0;
#X obj 7 5 inlet;
#X obj 10 833 outlet;
#X obj -19 171 del 200;
#X obj 371 600 randompitch;
#X obj 398 644 randompitch;
#X obj 47 93 randompitch;
#X obj 61 115 randompitch;
#X obj 74 137 randompitch;
#X obj 101 159 randompitch;
#X obj 115 181 randompitch;
#X obj 128 203 randompitch;
#X obj 142 225 randompitch;
#X obj 155 247 randompitch;
#X obj 169 269 randompitch;
#X obj 183 291 randompitch;
#X obj 196 313 randompitch;
#X obj 209 335 randompitch;
#X obj 223 357 randompitch;
#X obj 236 379 randompitch;
#X obj 250 402 randompitch;
#X obj 263 424 randompitch;
#X obj 277 446 randompitch;
#X obj 290 468 randompitch;
#X obj 304 490 randompitch;
#X obj 317 512 randompitch;
#X obj 331 534 randompitch;
#X obj 344 556 randompitch;
#X obj 358 578 randompitch;
#X obj 385 622 randompitch;
#X obj 412 666 randompitch;
#X obj 425 688 randompitch;
#X obj 439 710 randompitch;
#X obj 452 732 randompitch;
#X obj 466 755 randompitch;
#X connect 0 2 1 0;
#X connect 0 3 8 0;
#X connect 0 4 9 0;
#X connect 0 5 10 0;
#X connect 0 7 11 0;
#X connect 0 8 12 0;
#X connect 0 9 13 0;
#X connect 0 10 14 0;
#X connect 0 11 15 0;
#X connect 0 12 16 0;
#X connect 0 13 17 0;
#X connect 0 14 18 0;
#X connect 0 15 19 0;
#X connect 0 16 20 0;
#X connect 0 17 21 0;
#X connect 0 18 22 0;
#X connect 0 19 23 0;
#X connect 0 20 24 0;
#X connect 0 21 25 0;
#X connect 0 22 26 0;
#X connect 0 23 27 0;
#X connect 0 24 28 0;
#X connect 0 25 29 0;
#X connect 0 26 30 0;
#X connect 0 27 6 0;
#X connect 0 28 31 0;
#X connect 0 29 7 0;
#X connect 0 30 32 0;
#X connect 0 31 33 0;
#X connect 0 32 34 0;
#X connect 0 33 35 0;
#X connect 0 34 36 0;
#X connect 1 0 2 2;
#X connect 2 0 4 0;
#X connect 3 0 0 0;
#X connect 3 0 5 0;
#X connect 5 0 2 0;
#X connect 6 0 2 27;
#X connect 7 0 2 29;
#X connect 8 0 2 3;
#X connect 9 0 2 4;
#X connect 10 0 2 5;
#X connect 11 0 2 7;
#X connect 12 0 2 8;
#X connect 13 0 2 9;
#X connect 14 0 2 10;
#X connect 15 0 2 11;
#X connect 16 0 2 12;
#X connect 17 0 2 13;
#X connect 18 0 2 14;
#X connect 19 0 2 15;
#X connect 20 0 2 16;
#X connect 21 0 2 17;
#X connect 22 0 2 18;
#X connect 23 0 2 19;
#X connect 24 0 2 20;
#X connect 25 0 2 21;
#X connect 26 0 2 22;
#X connect 27 0 2 23;
#X connect 28 0 2 24;
#X connect 29 0 2 25;
#X connect 30 0 2 26;
#X connect 31 0 2 28;
#X connect 32 0 2 30;
#X connect 33 0 2 31;
#X connect 34 0 2 32;
#X connect 35 0 2 33;
#X connect 36 0 2 34;
