#N canvas 610 5 791 809 12;
#N canvas 208 1 454 304 randomonoff 0;
#X obj 24 56 r \$1density;
#X obj 5 32 random 11;
#X obj 5 82 <;
#X obj 5 5 inlet;
#X obj 40 135 outlet;
#X obj 5 109 t b f;
#X obj 5 160 s resend;
#X connect 0 0 2 1;
#X connect 1 0 2 0;
#X connect 2 0 5 0;
#X connect 3 0 1 0;
#X connect 5 0 6 0;
#X connect 5 1 4 0;
#X restore 48 467 pd randomonoff;
#X obj 8 512 pack 0 0 0 0 0 0 0 0 0 0 0 0 0 0 0 0 0 0 0 0 0 0 0 0 0
0 0 0 0 0 0 0 0 0 0;
#X obj 35 -228 r randomize\$1;
#N canvas 208 1 454 304 randomonoff 0;
#X obj 24 56 r \$1density;
#X obj 5 32 random 11;
#X obj 5 82 <;
#X obj 5 5 inlet;
#X obj 40 135 outlet;
#X obj 5 109 t b f;
#X obj 5 160 s resend;
#X connect 0 0 2 1;
#X connect 1 0 2 0;
#X connect 2 0 5 0;
#X connect 3 0 1 0;
#X connect 5 0 6 0;
#X connect 5 1 4 0;
#X restore 62 445 pd randomonoff;
#N canvas 208 1 454 304 randomonoff 0;
#X obj 24 56 r \$1density;
#X obj 5 32 random 11;
#X obj 5 82 <;
#X obj 5 5 inlet;
#X obj 40 135 outlet;
#X obj 5 109 t b f;
#X obj 5 160 s resend;
#X connect 0 0 2 1;
#X connect 1 0 2 0;
#X connect 2 0 5 0;
#X connect 3 0 1 0;
#X connect 5 0 6 0;
#X connect 5 1 4 0;
#X restore 75 423 pd randomonoff;
#N canvas 208 1 454 304 randomonoff 0;
#X obj 24 56 r \$1density;
#X obj 5 32 random 11;
#X obj 5 82 <;
#X obj 5 5 inlet;
#X obj 40 135 outlet;
#X obj 5 109 t b f;
#X obj 5 160 s resend;
#X connect 0 0 2 1;
#X connect 1 0 2 0;
#X connect 2 0 5 0;
#X connect 3 0 1 0;
#X connect 5 0 6 0;
#X connect 5 1 4 0;
#X restore 35 489 pd randomonoff;
#N canvas 208 1 454 304 randomonoff 0;
#X obj 24 56 r \$1density;
#X obj 5 32 random 11;
#X obj 5 82 <;
#X obj 5 5 inlet;
#X obj 40 135 outlet;
#X obj 5 109 t b f;
#X obj 5 160 s resend;
#X connect 0 0 2 1;
#X connect 1 0 2 0;
#X connect 2 0 5 0;
#X connect 3 0 1 0;
#X connect 5 0 6 0;
#X connect 5 1 4 0;
#X restore 102 401 pd randomonoff;
#N canvas 208 1 454 304 randomonoff 0;
#X obj 24 56 r \$1density;
#X obj 5 32 random 11;
#X obj 5 82 <;
#X obj 5 5 inlet;
#X obj 40 135 outlet;
#X obj 5 109 t b f;
#X obj 5 160 s resend;
#X connect 0 0 2 1;
#X connect 1 0 2 0;
#X connect 2 0 5 0;
#X connect 3 0 1 0;
#X connect 5 0 6 0;
#X connect 5 1 4 0;
#X restore 116 379 pd randomonoff;
#N canvas 208 1 454 304 randomonoff 0;
#X obj 24 56 r \$1density;
#X obj 5 32 random 11;
#X obj 5 82 <;
#X obj 5 5 inlet;
#X obj 40 135 outlet;
#X obj 5 109 t b f;
#X obj 5 160 s resend;
#X connect 0 0 2 1;
#X connect 1 0 2 0;
#X connect 2 0 5 0;
#X connect 3 0 1 0;
#X connect 5 0 6 0;
#X connect 5 1 4 0;
#X restore 129 357 pd randomonoff;
#N canvas 208 1 454 304 randomonoff 0;
#X obj 24 56 r \$1density;
#X obj 5 32 random 11;
#X obj 5 82 <;
#X obj 5 5 inlet;
#X obj 40 135 outlet;
#X obj 5 109 t b f;
#X obj 5 160 s resend;
#X connect 0 0 2 1;
#X connect 1 0 2 0;
#X connect 2 0 5 0;
#X connect 3 0 1 0;
#X connect 5 0 6 0;
#X connect 5 1 4 0;
#X restore 143 335 pd randomonoff;
#N canvas 208 1 454 304 randomonoff 0;
#X obj 24 56 r \$1density;
#X obj 5 32 random 11;
#X obj 5 82 <;
#X obj 5 5 inlet;
#X obj 40 135 outlet;
#X obj 5 109 t b f;
#X obj 5 160 s resend;
#X connect 0 0 2 1;
#X connect 1 0 2 0;
#X connect 2 0 5 0;
#X connect 3 0 1 0;
#X connect 5 0 6 0;
#X connect 5 1 4 0;
#X restore 170 288 pd randomonoff;
#N canvas 208 1 454 304 randomonoff 0;
#X obj 24 56 r \$1density;
#X obj 5 32 random 11;
#X obj 5 82 <;
#X obj 5 5 inlet;
#X obj 40 135 outlet;
#X obj 5 109 t b f;
#X obj 5 160 s resend;
#X connect 0 0 2 1;
#X connect 1 0 2 0;
#X connect 2 0 5 0;
#X connect 3 0 1 0;
#X connect 5 0 6 0;
#X connect 5 1 4 0;
#X restore 183 266 pd randomonoff;
#N canvas 208 1 454 304 randomonoff 0;
#X obj 24 56 r \$1density;
#X obj 5 32 random 11;
#X obj 5 82 <;
#X obj 5 5 inlet;
#X obj 40 135 outlet;
#X obj 5 109 t b f;
#X obj 5 160 s resend;
#X connect 0 0 2 1;
#X connect 1 0 2 0;
#X connect 2 0 5 0;
#X connect 3 0 1 0;
#X connect 5 0 6 0;
#X connect 5 1 4 0;
#X restore 197 244 pd randomonoff;
#N canvas 208 1 454 304 randomonoff 0;
#X obj 24 56 r \$1density;
#X obj 5 32 random 11;
#X obj 5 82 <;
#X obj 5 5 inlet;
#X obj 40 135 outlet;
#X obj 5 109 t b f;
#X obj 5 160 s resend;
#X connect 0 0 2 1;
#X connect 1 0 2 0;
#X connect 2 0 5 0;
#X connect 3 0 1 0;
#X connect 5 0 6 0;
#X connect 5 1 4 0;
#X restore 157 310 pd randomonoff;
#N canvas 208 1 454 304 randomonoff 0;
#X obj 24 56 r \$1density;
#X obj 5 32 random 11;
#X obj 5 82 <;
#X obj 5 5 inlet;
#X obj 40 135 outlet;
#X obj 5 109 t b f;
#X obj 5 160 s resend;
#X connect 0 0 2 1;
#X connect 1 0 2 0;
#X connect 2 0 5 0;
#X connect 3 0 1 0;
#X connect 5 0 6 0;
#X connect 5 1 4 0;
#X restore 210 222 pd randomonoff;
#N canvas 208 1 454 304 randomonoff 0;
#X obj 24 56 r \$1density;
#X obj 5 32 random 11;
#X obj 5 82 <;
#X obj 5 5 inlet;
#X obj 40 135 outlet;
#X obj 5 109 t b f;
#X obj 5 160 s resend;
#X connect 0 0 2 1;
#X connect 1 0 2 0;
#X connect 2 0 5 0;
#X connect 3 0 1 0;
#X connect 5 0 6 0;
#X connect 5 1 4 0;
#X restore 224 200 pd randomonoff;
#N canvas 208 1 454 304 randomonoff 0;
#X obj 24 56 r \$1density;
#X obj 5 32 random 11;
#X obj 5 82 <;
#X obj 5 5 inlet;
#X obj 40 135 outlet;
#X obj 5 109 t b f;
#X obj 5 160 s resend;
#X connect 0 0 2 1;
#X connect 1 0 2 0;
#X connect 2 0 5 0;
#X connect 3 0 1 0;
#X connect 5 0 6 0;
#X connect 5 1 4 0;
#X restore 237 178 pd randomonoff;
#N canvas 208 1 454 304 randomonoff 0;
#X obj 24 56 r \$1density;
#X obj 5 32 random 11;
#X obj 5 82 <;
#X obj 5 5 inlet;
#X obj 40 135 outlet;
#X obj 5 109 t b f;
#X obj 5 160 s resend;
#X connect 0 0 2 1;
#X connect 1 0 2 0;
#X connect 2 0 5 0;
#X connect 3 0 1 0;
#X connect 5 0 6 0;
#X connect 5 1 4 0;
#X restore 251 156 pd randomonoff;
#N canvas 208 1 454 304 randomonoff 0;
#X obj 24 56 r \$1density;
#X obj 5 32 random 11;
#X obj 5 82 <;
#X obj 5 5 inlet;
#X obj 40 135 outlet;
#X obj 5 109 t b f;
#X obj 5 160 s resend;
#X connect 0 0 2 1;
#X connect 1 0 2 0;
#X connect 2 0 5 0;
#X connect 3 0 1 0;
#X connect 5 0 6 0;
#X connect 5 1 4 0;
#X restore 278 110 pd randomonoff;
#N canvas 208 1 454 304 randomonoff 0;
#X obj 24 56 r \$1density;
#X obj 5 32 random 11;
#X obj 5 82 <;
#X obj 5 5 inlet;
#X obj 40 135 outlet;
#X obj 5 109 t b f;
#X obj 5 160 s resend;
#X connect 0 0 2 1;
#X connect 1 0 2 0;
#X connect 2 0 5 0;
#X connect 3 0 1 0;
#X connect 5 0 6 0;
#X connect 5 1 4 0;
#X restore 291 88 pd randomonoff;
#N canvas 208 1 454 304 randomonoff 0;
#X obj 24 56 r \$1density;
#X obj 5 32 random 11;
#X obj 5 82 <;
#X obj 5 5 inlet;
#X obj 40 135 outlet;
#X obj 5 109 t b f;
#X obj 5 160 s resend;
#X connect 0 0 2 1;
#X connect 1 0 2 0;
#X connect 2 0 5 0;
#X connect 3 0 1 0;
#X connect 5 0 6 0;
#X connect 5 1 4 0;
#X restore 305 66 pd randomonoff;
#N canvas 208 1 454 304 randomonoff 0;
#X obj 24 56 r \$1density;
#X obj 5 32 random 11;
#X obj 5 82 <;
#X obj 5 5 inlet;
#X obj 40 135 outlet;
#X obj 5 109 t b f;
#X obj 5 160 s resend;
#X connect 0 0 2 1;
#X connect 1 0 2 0;
#X connect 2 0 5 0;
#X connect 3 0 1 0;
#X connect 5 0 6 0;
#X connect 5 1 4 0;
#X restore 264 132 pd randomonoff;
#N canvas 208 1 454 304 randomonoff 0;
#X obj 24 56 r \$1density;
#X obj 5 32 random 11;
#X obj 5 82 <;
#X obj 5 5 inlet;
#X obj 40 135 outlet;
#X obj 5 109 t b f;
#X obj 5 160 s resend;
#X connect 0 0 2 1;
#X connect 1 0 2 0;
#X connect 2 0 5 0;
#X connect 3 0 1 0;
#X connect 5 0 6 0;
#X connect 5 1 4 0;
#X restore 318 44 pd randomonoff;
#N canvas 208 1 454 304 randomonoff 0;
#X obj 24 56 r \$1density;
#X obj 5 32 random 11;
#X obj 5 82 <;
#X obj 5 5 inlet;
#X obj 40 135 outlet;
#X obj 5 109 t b f;
#X obj 5 160 s resend;
#X connect 0 0 2 1;
#X connect 1 0 2 0;
#X connect 2 0 5 0;
#X connect 3 0 1 0;
#X connect 5 0 6 0;
#X connect 5 1 4 0;
#X restore 332 22 pd randomonoff;
#N canvas 208 1 454 304 randomonoff 0;
#X obj 24 56 r \$1density;
#X obj 5 32 random 11;
#X obj 5 82 <;
#X obj 5 5 inlet;
#X obj 40 135 outlet;
#X obj 5 109 t b f;
#X obj 5 160 s resend;
#X connect 0 0 2 1;
#X connect 1 0 2 0;
#X connect 2 0 5 0;
#X connect 3 0 1 0;
#X connect 5 0 6 0;
#X connect 5 1 4 0;
#X restore 345 0 pd randomonoff;
#N canvas 208 1 454 304 randomonoff 0;
#X obj 24 56 r \$1density;
#X obj 5 32 random 11;
#X obj 5 82 <;
#X obj 5 5 inlet;
#X obj 40 135 outlet;
#X obj 5 109 t b f;
#X obj 5 160 s resend;
#X connect 0 0 2 1;
#X connect 1 0 2 0;
#X connect 2 0 5 0;
#X connect 3 0 1 0;
#X connect 5 0 6 0;
#X connect 5 1 4 0;
#X restore 359 -22 pd randomonoff;
#N canvas 208 1 454 304 randomonoff 0;
#X obj 24 56 r \$1density;
#X obj 5 32 random 11;
#X obj 5 82 <;
#X obj 5 5 inlet;
#X obj 40 135 outlet;
#X obj 5 109 t b f;
#X obj 5 160 s resend;
#X connect 0 0 2 1;
#X connect 1 0 2 0;
#X connect 2 0 5 0;
#X connect 3 0 1 0;
#X connect 5 0 6 0;
#X connect 5 1 4 0;
#X restore 372 -45 pd randomonoff;
#N canvas 208 1 454 304 randomonoff 0;
#X obj 24 56 r \$1density;
#X obj 5 32 random 11;
#X obj 5 82 <;
#X obj 5 5 inlet;
#X obj 40 135 outlet;
#X obj 5 109 t b f;
#X obj 5 160 s resend;
#X connect 0 0 2 1;
#X connect 1 0 2 0;
#X connect 2 0 5 0;
#X connect 3 0 1 0;
#X connect 5 0 6 0;
#X connect 5 1 4 0;
#X restore 386 -67 pd randomonoff;
#N canvas 208 1 454 304 randomonoff 0;
#X obj 24 56 r \$1density;
#X obj 5 32 random 11;
#X obj 5 82 <;
#X obj 5 5 inlet;
#X obj 40 135 outlet;
#X obj 5 109 t b f;
#X obj 5 160 s resend;
#X connect 0 0 2 1;
#X connect 1 0 2 0;
#X connect 2 0 5 0;
#X connect 3 0 1 0;
#X connect 5 0 6 0;
#X connect 5 1 4 0;
#X restore 399 -89 pd randomonoff;
#N canvas 208 1 454 304 randomonoff 0;
#X obj 24 56 r \$1density;
#X obj 5 32 random 11;
#X obj 5 82 <;
#X obj 5 5 inlet;
#X obj 40 135 outlet;
#X obj 5 109 t b f;
#X obj 5 160 s resend;
#X connect 0 0 2 1;
#X connect 1 0 2 0;
#X connect 2 0 5 0;
#X connect 3 0 1 0;
#X connect 5 0 6 0;
#X connect 5 1 4 0;
#X restore 413 -111 pd randomonoff;
#N canvas 208 1 454 304 randomonoff 0;
#X obj 24 56 r \$1density;
#X obj 5 32 random 11;
#X obj 5 82 <;
#X obj 5 5 inlet;
#X obj 40 135 outlet;
#X obj 5 109 t b f;
#X obj 5 160 s resend;
#X connect 0 0 2 1;
#X connect 1 0 2 0;
#X connect 2 0 5 0;
#X connect 3 0 1 0;
#X connect 5 0 6 0;
#X connect 5 1 4 0;
#X restore 426 -135 pd randomonoff;
#N canvas 208 1 454 304 randomonoff 0;
#X obj 24 56 r \$1density;
#X obj 5 32 random 11;
#X obj 5 82 <;
#X obj 5 5 inlet;
#X obj 40 135 outlet;
#X obj 5 109 t b f;
#X obj 5 160 s resend;
#X connect 0 0 2 1;
#X connect 1 0 2 0;
#X connect 2 0 5 0;
#X connect 3 0 1 0;
#X connect 5 0 6 0;
#X connect 5 1 4 0;
#X restore 440 -157 pd randomonoff;
#N canvas 208 1 454 304 randomonoff 0;
#X obj 24 56 r \$1density;
#X obj 5 32 random 11;
#X obj 5 82 <;
#X obj 5 5 inlet;
#X obj 40 135 outlet;
#X obj 5 109 t b f;
#X obj 5 160 s resend;
#X connect 0 0 2 1;
#X connect 1 0 2 0;
#X connect 2 0 5 0;
#X connect 3 0 1 0;
#X connect 5 0 6 0;
#X connect 5 1 4 0;
#X restore 453 -179 pd randomonoff;
#N canvas 52 38 470 320 randomonoff 0;
#X obj 24 56 r \$1density;
#X obj 5 32 random 11;
#X obj 5 82 <;
#X obj 5 5 inlet;
#X obj 40 135 outlet;
#X obj 5 109 t b f;
#X obj 5 160 s resend;
#X connect 0 0 2 1;
#X connect 1 0 2 0;
#X connect 2 0 5 0;
#X connect 3 0 1 0;
#X connect 5 0 6 0;
#X connect 5 1 4 0;
#X restore 467 -201 pd randomonoff;
#X obj 8 553 s random\$1;
#X obj 8 -127 del 200;
#X connect 0 0 1 3;
#X connect 1 0 34 0;
#X connect 2 0 33 0;
#X connect 2 0 32 0;
#X connect 2 0 31 0;
#X connect 2 0 30 0;
#X connect 2 0 29 0;
#X connect 2 0 28 0;
#X connect 2 0 27 0;
#X connect 2 0 26 0;
#X connect 2 0 25 0;
#X connect 2 0 24 0;
#X connect 2 0 23 0;
#X connect 2 0 22 0;
#X connect 2 0 20 0;
#X connect 2 0 19 0;
#X connect 2 0 18 0;
#X connect 2 0 21 0;
#X connect 2 0 17 0;
#X connect 2 0 16 0;
#X connect 2 0 15 0;
#X connect 2 0 14 0;
#X connect 2 0 12 0;
#X connect 2 0 11 0;
#X connect 2 0 10 0;
#X connect 2 0 13 0;
#X connect 2 0 9 0;
#X connect 2 0 8 0;
#X connect 2 0 7 0;
#X connect 2 0 6 0;
#X connect 2 0 4 0;
#X connect 2 0 3 0;
#X connect 2 0 0 0;
#X connect 2 0 5 0;
#X connect 2 0 35 0;
#X connect 3 0 1 4;
#X connect 4 0 1 5;
#X connect 5 0 1 2;
#X connect 6 0 1 7;
#X connect 7 0 1 8;
#X connect 8 0 1 9;
#X connect 9 0 1 10;
#X connect 10 0 1 12;
#X connect 11 0 1 13;
#X connect 12 0 1 14;
#X connect 13 0 1 11;
#X connect 14 0 1 15;
#X connect 15 0 1 16;
#X connect 16 0 1 17;
#X connect 17 0 1 18;
#X connect 18 0 1 20;
#X connect 19 0 1 21;
#X connect 20 0 1 22;
#X connect 21 0 1 19;
#X connect 22 0 1 23;
#X connect 23 0 1 24;
#X connect 24 0 1 25;
#X connect 25 0 1 26;
#X connect 26 0 1 27;
#X connect 27 0 1 28;
#X connect 28 0 1 29;
#X connect 29 0 1 30;
#X connect 30 0 1 31;
#X connect 31 0 1 32;
#X connect 32 0 1 33;
#X connect 33 0 1 34;
#X connect 35 0 1 0;
