#N canvas 34 51 1280 841 12;
#X obj 129 10 r rhythm;
#X obj 129 36 / 4;
#X obj 36 65 metro;
#X obj 36 9 r beatonoff;
#X obj 2 89 bng 15 250 50 0 empty empty empty 17 7 0 10 -262144 -1
-1;
#X obj 6 9 tgl 15 0 empty empty empty 17 7 0 10 -262144 -1 -1 0 1;
#X obj 36 91 f;
#X obj 69 91 + 1;
#X floatatom 36 125 5 0 0 0 - - -;
#X obj 104 65 r time;
#X obj 104 91 * 4;
#X msg 85 167 0;
#X obj 85 121 sel;
#X obj 20 198 sel 1 2 3 4 5 6 7 8 9 10 11 12 13 14 15 16 17 18 19 20
21 22 23 24 25 26 27 28 29 30 31 32;
#X obj 481 175 r \$1;
#X obj 136 92 bng 15 250 50 0 empty empty empty 17 7 0 10 -262144 -1
-1;
#X obj 20 254 sampleread \$1;
#X obj 481 198 unpack 0 0 0 0 0 0 0 0 0 0 0 0 0 0 0 0 0 0 0 0 0 0 0
0 0 0 0 0 0 0 0 0 0 0 0;
#X obj 34 277 sampleread \$1;
#X obj 48 300 sampleread \$1;
#X obj 62 323 sampleread \$1;
#X obj 76 346 sampleread \$1;
#X obj 90 369 sampleread \$1;
#X obj 104 392 sampleread \$1;
#X obj 118 415 sampleread \$1;
#X obj 132 441 sampleread \$1;
#X obj 146 464 sampleread \$1;
#X obj 160 487 sampleread \$1;
#X obj 174 510 sampleread \$1;
#X obj 189 533 sampleread \$1;
#X obj 203 556 sampleread \$1;
#X obj 217 579 sampleread \$1;
#X obj 231 602 sampleread \$1;
#X obj 618 348 sampleread \$1;
#X obj 633 371 sampleread \$1;
#X obj 648 394 sampleread \$1;
#X obj 663 417 sampleread \$1;
#X obj 678 440 sampleread \$1;
#X obj 692 463 sampleread \$1;
#X obj 707 486 sampleread \$1;
#X obj 722 509 sampleread \$1;
#X obj 737 533 sampleread \$1;
#X obj 752 556 sampleread \$1;
#X obj 766 579 sampleread \$1;
#X obj 781 602 sampleread \$1;
#X obj 796 625 sampleread \$1;
#X obj 811 648 sampleread \$1;
#X obj 826 671 sampleread \$1;
#X obj 841 695 sampleread \$1;
#X connect 0 0 1 0;
#X connect 1 0 2 1;
#X connect 2 0 4 0;
#X connect 2 0 6 0;
#X connect 3 0 2 0;
#X connect 5 0 2 0;
#X connect 6 0 7 0;
#X connect 6 0 8 0;
#X connect 6 0 12 0;
#X connect 7 0 6 1;
#X connect 8 0 13 0;
#X connect 9 0 10 0;
#X connect 9 0 15 0;
#X connect 10 0 12 1;
#X connect 11 0 7 0;
#X connect 12 0 11 0;
#X connect 13 0 16 0;
#X connect 13 1 18 0;
#X connect 13 2 19 0;
#X connect 13 3 20 0;
#X connect 13 4 21 0;
#X connect 13 5 22 0;
#X connect 13 6 23 0;
#X connect 13 7 24 0;
#X connect 13 8 25 0;
#X connect 13 9 26 0;
#X connect 13 10 27 0;
#X connect 13 11 28 0;
#X connect 13 12 29 0;
#X connect 13 13 30 0;
#X connect 13 14 31 0;
#X connect 13 15 32 0;
#X connect 13 16 33 0;
#X connect 13 17 34 0;
#X connect 13 18 35 0;
#X connect 13 19 36 0;
#X connect 13 20 37 0;
#X connect 13 21 38 0;
#X connect 13 22 39 0;
#X connect 13 23 40 0;
#X connect 13 24 41 0;
#X connect 13 25 42 0;
#X connect 13 26 43 0;
#X connect 13 27 44 0;
#X connect 13 28 45 0;
#X connect 13 29 46 0;
#X connect 13 30 47 0;
#X connect 13 31 48 0;
#X connect 14 0 17 0;
#X connect 15 0 11 0;
#X connect 17 2 16 1;
#X connect 17 3 18 1;
#X connect 17 4 19 1;
#X connect 17 5 20 1;
#X connect 17 7 21 1;
#X connect 17 8 22 1;
#X connect 17 9 23 1;
#X connect 17 10 24 1;
#X connect 17 11 25 1;
#X connect 17 12 26 1;
#X connect 17 13 27 1;
#X connect 17 14 28 1;
#X connect 17 15 29 1;
#X connect 17 16 30 1;
#X connect 17 17 31 1;
#X connect 17 18 32 1;
#X connect 17 19 33 1;
#X connect 17 20 34 1;
#X connect 17 21 35 1;
#X connect 17 22 36 1;
#X connect 17 23 37 1;
#X connect 17 24 38 1;
#X connect 17 25 39 1;
#X connect 17 26 40 1;
#X connect 17 27 41 1;
#X connect 17 28 42 1;
#X connect 17 29 43 1;
#X connect 17 30 44 1;
#X connect 17 31 45 1;
#X connect 17 32 46 1;
#X connect 17 33 47 1;
#X connect 17 34 48 1;
