#N canvas 0 0 978 755 12;
#X obj 139 9 r rhythm;
#X obj 139 35 / 4;
#X obj 36 65 metro;
#X obj 36 91 f;
#X obj 69 91 + 1;
#X floatatom 36 125 5 0 0 0 - - -;
#X obj 104 65 r time;
#X obj 104 91 * 4;
#X msg 85 167 0;
#X obj 85 121 sel;
#X obj 20 198 sel 1 2 3 4 5 6 7 8 9 10 11 12 13 14 15 16 17 18 19 20
21 22 23 24 25 26 27 28 29 30 31 32;
#X obj 136 92 bng 15 250 50 0 empty empty empty 17 7 0 10 -262144 -1
-1;
#X obj 481 198 unpack 0 0 0 0 0 0 0 0 0 0 0 0 0 0 0 0 0 0 0 0 0 0 0
0 0 0 0 0 0 0 0 0 0 0 0;
#X obj 481 175 r \$1density;
#X obj 20 245 randompitch;
#X obj 34 289 randompitch;
#X obj 48 332 randompitch;
#X obj 62 376 randompitch;
#X obj 76 420 randompitch;
#X obj 90 464 randompitch;
#X obj 104 507 randompitch;
#X obj 118 551 randompitch;
#X obj 132 290 randompitch;
#X obj 146 334 randompitch;
#X obj 160 377 randompitch;
#X obj 175 421 randompitch;
#X obj 189 465 randompitch;
#X obj 202 509 randompitch;
#X obj 217 552 randompitch;
#X obj 230 596 randompitch;
#X obj 245 334 randompitch;
#X obj 259 378 randompitch;
#X obj 273 421 randompitch;
#X obj 287 465 randompitch;
#X obj 301 509 randompitch;
#X obj 315 553 randompitch;
#X obj 330 597 randompitch;
#X obj 344 641 randompitch;
#X obj 358 382 randompitch;
#X obj 372 426 randompitch;
#X obj 386 469 randompitch;
#X obj 400 513 randompitch;
#X obj 414 557 randompitch;
#X obj 428 601 randompitch;
#X obj 442 644 randompitch;
#X obj 456 688 randompitch;
#X obj 36 9 r synthonoff;
#X connect 0 0 1 0;
#X connect 1 0 2 1;
#X connect 2 0 3 0;
#X connect 3 0 4 0;
#X connect 3 0 5 0;
#X connect 3 0 9 0;
#X connect 4 0 3 1;
#X connect 5 0 10 0;
#X connect 6 0 7 0;
#X connect 6 0 11 0;
#X connect 7 0 9 1;
#X connect 8 0 4 0;
#X connect 9 0 8 0;
#X connect 10 0 14 0;
#X connect 10 1 15 0;
#X connect 10 2 16 0;
#X connect 10 3 17 0;
#X connect 10 4 18 0;
#X connect 10 5 19 0;
#X connect 10 6 20 0;
#X connect 10 7 21 0;
#X connect 10 8 22 0;
#X connect 10 9 23 0;
#X connect 10 10 24 0;
#X connect 10 11 25 0;
#X connect 10 12 26 0;
#X connect 10 13 27 0;
#X connect 10 14 28 0;
#X connect 10 15 29 0;
#X connect 10 16 30 0;
#X connect 10 17 31 0;
#X connect 10 18 32 0;
#X connect 10 19 33 0;
#X connect 10 20 34 0;
#X connect 10 21 35 0;
#X connect 10 22 36 0;
#X connect 10 23 37 0;
#X connect 10 24 38 0;
#X connect 10 25 39 0;
#X connect 10 26 40 0;
#X connect 10 27 41 0;
#X connect 10 28 42 0;
#X connect 10 29 43 0;
#X connect 10 30 44 0;
#X connect 10 31 45 0;
#X connect 11 0 8 0;
#X connect 12 2 14 1;
#X connect 12 3 15 1;
#X connect 12 4 16 1;
#X connect 12 5 17 1;
#X connect 12 7 18 1;
#X connect 12 8 19 1;
#X connect 12 9 20 1;
#X connect 12 10 21 1;
#X connect 12 11 22 1;
#X connect 12 12 23 1;
#X connect 12 13 24 1;
#X connect 12 14 25 1;
#X connect 12 15 26 1;
#X connect 12 16 27 1;
#X connect 12 17 28 1;
#X connect 12 18 29 1;
#X connect 12 19 30 1;
#X connect 12 20 31 1;
#X connect 12 21 32 1;
#X connect 12 22 33 1;
#X connect 12 23 34 1;
#X connect 12 24 35 1;
#X connect 12 25 36 1;
#X connect 12 26 37 1;
#X connect 12 27 38 1;
#X connect 12 28 39 1;
#X connect 12 29 40 1;
#X connect 12 30 41 1;
#X connect 12 31 42 1;
#X connect 12 32 43 1;
#X connect 12 33 44 1;
#X connect 12 34 45 1;
#X connect 13 0 12 0;
#X connect 46 0 2 0;
