#N canvas 551 130 563 554 12;
#X obj 16 34 / 127;
#X obj 16 58 sel 0;
#X obj 24 439 line~;
#X obj 24 414 pack 0 0;
#X floatatom 192 103 5 0 0 0 - - -;
#X text 242 102 attack;
#X floatatom 194 340 5 0 0 0 - - -;
#X text 245 340 release;
#X floatatom 1 337 1 0 0 0 - - -;
#X floatatom 192 169 5 0 0 0 - - -;
#X text 242 169 delay;
#X floatatom 190 242 3 0 0 0 - - -;
#X obj 112 140 del;
#X obj 112 169 t b b;
#X obj 67 58 t b f b b;
#X obj 76 276 / 100;
#X obj 76 315 *;
#X obj 76 249 f;
#X text 225 245 sustain (%);
#X obj 16 8 inlet;
#X obj 23 465 outlet~;
#X obj 1 82 t b b;
#X msg 6 113 stop;
#X obj 444 31 loadbang;
#X msg 444 55 50;
#X obj 192 71 r \$1A;
#X obj 192 142 r \$1D;
#X obj 190 215 r \$1S;
#X obj 194 308 r \$1R;
#X connect 0 0 1 0;
#X connect 1 0 21 0;
#X connect 1 1 14 0;
#X connect 2 0 20 0;
#X connect 3 0 2 0;
#X connect 4 0 3 1;
#X connect 4 0 12 1;
#X connect 6 0 3 1;
#X connect 8 0 3 0;
#X connect 9 0 3 1;
#X connect 11 0 16 1;
#X connect 12 0 13 0;
#X connect 13 0 17 0;
#X connect 13 1 9 0;
#X connect 13 1 11 0;
#X connect 14 0 12 0;
#X connect 14 1 3 0;
#X connect 14 1 17 1;
#X connect 14 3 4 0;
#X connect 15 0 16 0;
#X connect 16 0 3 0;
#X connect 17 0 15 0;
#X connect 19 0 0 0;
#X connect 21 0 8 0;
#X connect 21 1 6 0;
#X connect 21 1 22 0;
#X connect 22 0 12 0;
#X connect 23 0 24 0;
#X connect 24 0 4 0;
#X connect 24 0 9 0;
#X connect 24 0 11 0;
#X connect 24 0 6 0;
#X connect 25 0 4 0;
#X connect 26 0 9 0;
#X connect 27 0 11 0;
#X connect 28 0 6 0;
