#N canvas 98 143 860 516 12;
#X obj 26 260 *~;
#X obj 26 286 dac~;
#N canvas 556 93 169 219 volume 0;
#X obj 6 88 line~;
#X msg 6 60 \$1 20;
#X obj 6 33 dbtorms;
#X obj 6 113 outlet~;
#X obj 6 7 r master;
#X connect 0 0 3 0;
#X connect 1 0 0 0;
#X connect 2 0 1 0;
#X connect 4 0 2 0;
#X restore 56 260 pd volume;
#N canvas 0 0 450 300 (subpatch) 0;
#X array Display 100 float 3;
#A 0 0 0 0 0 0 0 0 0 0 0 0 0 0 0 0 0 0 0 0 0 0 0 0 0 0 0 0 0 0 0 0
0 0 0 0 0 0 0 0 0 0 0 0 0 0 0 0 0 0 0 0 0 0 0 0 0 0 0 0 0 0 0 0 0 0
0 0 0 0 0 0 0 0 0 0 0 0 0 0 0 0 0 0 0 0 0 0 0 0 0 0 0 0 0 0 0 0 0 0
0;
#X coords 0 0.99 100 -0.99 200 140 1;
#X restore 264 228 graph;
#N canvas 4 0 1015 711 voices 0;
#X obj 25 38 inlet;
#X obj 24 422 outlet~;
#X obj 25 68 route 1 2 3 4 5 6 7 8;
#X obj 25 98 voice;
#X obj 147 253 voice;
#X obj 169 279 voice;
#X obj 45 121 voice;
#X obj 86 171 voice;
#X obj 106 195 voice;
#X obj 126 225 voice;
#X obj 65 146 voice;
#X connect 0 0 2 0;
#X connect 2 0 3 0;
#X connect 2 1 6 0;
#X connect 2 2 10 0;
#X connect 2 3 7 0;
#X connect 2 4 8 0;
#X connect 2 5 9 0;
#X connect 2 6 4 0;
#X connect 2 7 5 0;
#X connect 3 0 1 0;
#X connect 4 0 1 0;
#X connect 5 0 1 0;
#X connect 6 0 1 0;
#X connect 7 0 1 0;
#X connect 8 0 1 0;
#X connect 9 0 1 0;
#X connect 10 0 1 0;
#X restore 27 189 pd voices;
#N canvas 0 0 486 336 display 0;
#X obj 119 60 loadbang;
#X obj 119 87 metro 500;
#X obj 30 77 inlet~;
#X obj 70 41 bng 15 250 50 0 empty empty empty 17 7 0 10 -262144 -1
-1;
#X obj 119 114 tabwrite~ Display;
#X obj 56 158 clip~ -1 1;
#X connect 0 0 1 0;
#X connect 1 0 4 0;
#X connect 2 0 5 0;
#X connect 3 0 1 0;
#X connect 5 0 4 0;
#X restore 32 236 pd display;
#X text 13 35 Note: You may use FM OR;
#X text 14 52 Additive Synthesis at one;
#X text 12 85 only the one most recently;
#X text 11 102 activated will be used.;
#N canvas 0 0 379 194 (subpatch) 0;
#X floatatom 93 55 5 0 0 0 - - -;
#X floatatom 174 55 5 0 0 0 - - -;
#X text 76 6 FM Control;
#X obj 35 55 tgl 15 0 empty empty empty 17 7 0 10 -262144 -1 -1 1 1
;
#X text 88 31 Frequency;
#X text 176 35 Depth;
#X text 18 30 On/Off;
#X obj 15 105 s tog1;
#X obj 93 103 s modf;
#X obj 174 102 s modd;
#X obj 272 -24 loadbang;
#X msg 271 0 60;
#X connect 0 0 8 0;
#X connect 1 0 9 0;
#X connect 3 0 7 0;
#X connect 10 0 3 0;
#X connect 10 0 11 0;
#X connect 11 0 1 0;
#X connect 11 0 0 0;
#X coords 0 1 100 -1 250 80 1 0 0;
#X restore 247 42 graph;
#N canvas 416 34 462 312 (subpatch) 0;
#X floatatom 138 88 2 0 0 0 - - -;
#X floatatom 184 88 2 0 0 0 - - -;
#X floatatom 224 88 2 0 0 0 - - -;
#X floatatom 100 89 2 0 0 0 - - -;
#X text 91 66 2nd;
#X text 133 65 3rd;
#X text 179 67 4th;
#X text 222 68 5th;
#X obj 31 58 tgl 15 0 empty empty empty 17 7 0 10 -262144 -1 -1 0 1
;
#X text 17 0 Additive Synthesis Controls;
#X text 12 32 On/Off;
#X text 96 25 Partial Strenghts;
#X text 94 41 (% of Fundamental);
#X obj 7 140 s tog2;
#X obj 79 136 s 2n;
#X obj 127 142 s 3r;
#X obj 183 146 s 4t;
#X obj 231 139 s 5t;
#X connect 0 0 15 0;
#X connect 1 0 16 0;
#X connect 2 0 17 0;
#X connect 3 0 14 0;
#X connect 8 0 13 0;
#X coords 0 1 100 -1 275 115 1 0 0;
#X restore 235 -79 graph;
#N canvas 601 112 458 308 (subpatch) 0;
#X floatatom 16 51 4 0 0 0 - - -;
#X floatatom 80 50 4 0 0 0 - - -;
#X floatatom 160 52 4 0 0 0 - - -;
#X floatatom 237 51 4 0 0 0 - - -;
#X text 8 29 Attack;
#X text 76 29 Delay;
#X text 228 31 Release;
#X text 134 31 Sustain(%);
#X text 87 8 ADSR Controls;
#X obj 16 92 s A;
#X obj 80 95 s D;
#X obj 160 92 s S;
#X obj 237 91 s R;
#X obj 374 65 loadbang;
#X msg 322 115 500;
#X msg 319 187 1000;
#X msg 323 150 40;
#X msg 317 217 500;
#X connect 0 0 9 0;
#X connect 1 0 10 0;
#X connect 2 0 11 0;
#X connect 3 0 12 0;
#X connect 13 0 14 0;
#X connect 13 0 16 0;
#X connect 13 0 15 0;
#X connect 13 0 17 0;
#X connect 14 0 3 0;
#X connect 15 0 1 0;
#X connect 16 0 2 0;
#X connect 17 0 0 0;
#X coords 0 1 100 -1 300 80 1 0 0;
#X restore 535 -79 graph;
#N canvas 0 0 458 308 (subpatch) 0;
#X text 50 7 Ring Modulation;
#X obj 22 57 tgl 15 0 empty empty empty 17 7 0 10 -262144 -1 -1 0 1
;
#X text 10 33 On/Off;
#X text 95 33 Mod. Frequency;
#X floatatom 124 54 5 0 0 0 - - -;
#X obj 22 111 s rtog;
#X obj 124 104 s rmf;
#X connect 1 0 5 0;
#X connect 4 0 6 0;
#X coords 0 1 100 -1 220 80 1 0 0;
#X restore 262 126 graph;
#N canvas 0 0 458 308 (subpatch) 0;
#X floatatom 101 49 5 0 0 0 - - -;
#X text 5 24 On/Off;
#X text 62 1 Delay;
#X obj 21 49 tgl 15 0 empty empty empty 17 7 0 10 -262144 -1 -1 0 1
;
#X text 80 25 Time (msec.);
#X obj 21 95 s dtog;
#X obj 101 91 s dtime;
#X msg 215 46 500;
#X obj 215 12 loadbang;
#X connect 0 0 6 0;
#X connect 3 0 5 0;
#X connect 7 0 0 0;
#X connect 8 0 7 0;
#X coords 0 1 100 -1 180 80 1 0 0;
#X restore 601 296 graph;
#N canvas 288 78 454 304 (subpatch) 0;
#X floatatom 10 24 3 0 0 0 - - -;
#X text 12 2 Volume;
#X text 40 22 (dB);
#X obj 17 76 s master;
#X connect 0 0 3 0;
#X coords 0 1 100 -1 75 50 1 0 0;
#X restore 56 -56 graph;
#X text 12 68 time. If both are on \,;
#N canvas 0 0 462 312 (subpatch) 0;
#X text 19 11 Pitch Bend;
#X floatatom 14 37 5 0 0 0 - - -;
#X text 63 35 Cents;
#X obj 22 85 / 100;
#X obj 22 125 s pbend;
#X connect 1 0 3 0;
#X connect 3 0 4 0;
#X coords 0 1 100 -1 120 80 1 0 0;
#X restore 630 210 graph;
#N canvas 0 0 454 304 (subpatch) 0;
#X obj 20 141 tgl 15 0 empty empty empty 17 7 0 10 -262144 -1 -1 0
1;
#X floatatom 62 169 5 0 0 0 - - -;
#X obj 233 104 s low;
#X obj 245 162 s hi;
#X obj 301 236 s center;
#X obj 304 263 s Q;
#X floatatom 64 47 5 0 0 0 - - -;
#X floatatom 61 141 5 0 0 0 - - -;
#X floatatom 63 91 5 0 0 0 - - -;
#X obj 23 47 tgl 15 0 empty empty empty 17 7 0 10 -262144 -1 -1 0 1
;
#X obj 20 92 tgl 15 0 empty empty empty 17 7 0 10 -262144 -1 -1 0 1
;
#X obj 235 130 s lowtog;
#X obj 234 188 s hitog;
#X obj 71 246 s bandtog;
#X text 35 4 Filters;
#X text 10 26 Low-Pass;
#X text 7 69 High-Pass;
#X text 8 117 Band-Pass;
#X text 123 88 Freq.;
#X text 118 139 Freq.;
#X text 126 45 Freq.;
#X text 126 167 Q;
#X connect 0 0 13 0;
#X connect 1 0 5 0;
#X connect 6 0 2 0;
#X connect 7 0 4 0;
#X connect 8 0 3 0;
#X connect 9 0 11 0;
#X connect 10 0 12 0;
#X coords 0 1 100 -1 170 200 1 0 0;
#X restore 606 6 graph;
#N canvas 367 56 474 324 effects 0;
#X obj 23 42 inlet~;
#X obj 19 196 outlet~;
#N canvas 147 75 486 336 delay 0;
#X obj 199 100 delwrite~ delay 2000;
#X obj 200 166 r dtime;
#X obj 158 16 inlet~;
#X obj 139 276 outlet~;
#X obj 95 29 r dtog;
#X obj 199 74 *~;
#X obj 49 74 sel 1;
#X obj 95 74 sel 0;
#X obj 138 204 *~;
#X floatatom 49 102 1 0 0 0 - - -;
#X msg 95 98 1;
#X obj 23 28 loadbang;
#X obj 200 191 delread~ delay 250;
#X connect 1 0 12 0;
#X connect 2 0 8 1;
#X connect 2 0 5 1;
#X connect 4 0 6 0;
#X connect 4 0 7 0;
#X connect 4 0 5 0;
#X connect 5 0 0 0;
#X connect 6 0 9 0;
#X connect 7 0 10 0;
#X connect 8 0 3 0;
#X connect 9 0 8 0;
#X connect 10 0 8 0;
#X connect 11 0 10 0;
#X connect 12 0 3 0;
#X restore 20 169 pd delay;
#N canvas 0 0 470 320 ring 0;
#X obj 181 35 inlet~;
#X obj 181 231 outlet~;
#X obj 194 159 *~;
#X obj 229 121 osc~;
#X obj 229 93 r rmf;
#X obj 193 122 *~;
#X obj 161 160 *~;
#X obj 50 81 sel 1;
#X obj 96 81 sel 0;
#X floatatom 50 105 1 0 0 0 - - -;
#X msg 96 105 1;
#X obj 96 36 r rtog;
#X obj 26 36 loadbang;
#X connect 0 0 5 1;
#X connect 0 0 6 1;
#X connect 2 0 1 0;
#X connect 3 0 2 1;
#X connect 4 0 3 0;
#X connect 5 0 2 0;
#X connect 6 0 1 0;
#X connect 7 0 9 0;
#X connect 8 0 10 0;
#X connect 9 0 6 0;
#X connect 10 0 6 0;
#X connect 11 0 7 0;
#X connect 11 0 8 0;
#X connect 11 0 5 0;
#X connect 12 0 10 0;
#X restore 22 68 pd ring;
#N canvas 459 106 313 216 low 0;
#X obj 151 25 inlet~;
#X obj 192 146 outlet~;
#X obj 211 70 lop~;
#X obj 238 28 r low;
#X obj 192 115 *~;
#X obj 41 54 sel 0 1;
#X msg 66 78 0;
#X msg 30 78 1;
#X obj 132 115 *~;
#X obj 41 24 r lowtog;
#X obj 13 2 loadbang;
#X connect 0 0 2 0;
#X connect 0 0 8 1;
#X connect 2 0 4 1;
#X connect 3 0 2 1;
#X connect 4 0 1 0;
#X connect 5 0 7 0;
#X connect 5 1 6 0;
#X connect 6 0 8 0;
#X connect 7 0 8 0;
#X connect 8 0 1 0;
#X connect 9 0 4 0;
#X connect 9 0 5 0;
#X connect 10 0 7 0;
#X restore 21 94 pd low;
#N canvas 0 0 301 219 high 0;
#X obj 151 25 inlet~;
#X obj 192 146 outlet~;
#X obj 192 115 *~;
#X obj 41 54 sel 0 1;
#X msg 66 78 0;
#X msg 30 78 1;
#X obj 132 115 *~;
#X obj 211 70 hip~;
#X obj 238 28 r hi;
#X obj 45 22 r hitog;
#X obj 6 -3 loadbang;
#X connect 0 0 6 1;
#X connect 0 0 7 0;
#X connect 2 0 1 0;
#X connect 3 0 5 0;
#X connect 3 1 4 0;
#X connect 4 0 6 0;
#X connect 5 0 6 0;
#X connect 6 0 1 0;
#X connect 7 0 2 1;
#X connect 8 0 7 1;
#X connect 9 0 2 0;
#X connect 9 0 3 0;
#X connect 10 0 5 0;
#X restore 20 121 pd high;
#N canvas 110 300 315 200 band 0;
#X obj 139 25 inlet~;
#X obj 180 146 outlet~;
#X obj 180 115 *~;
#X obj 29 54 sel 0 1;
#X msg 54 78 0;
#X msg 18 78 1;
#X obj 120 115 *~;
#X obj 199 71 bp~;
#X obj 226 28 r center;
#X obj 237 52 r Q;
#X obj 27 24 r bandtog;
#X obj 5 -1 loadbang;
#X connect 0 0 6 1;
#X connect 0 0 7 0;
#X connect 2 0 1 0;
#X connect 3 0 5 0;
#X connect 3 1 4 0;
#X connect 4 0 6 0;
#X connect 5 0 6 0;
#X connect 6 0 1 0;
#X connect 7 0 2 1;
#X connect 8 0 7 1;
#X connect 9 0 7 2;
#X connect 10 0 2 0;
#X connect 10 0 3 0;
#X connect 11 0 5 0;
#X restore 19 145 pd band;
#X connect 0 0 3 0;
#X connect 2 0 1 0;
#X connect 3 0 4 0;
#X connect 4 0 5 0;
#X connect 5 0 6 0;
#X connect 6 0 2 0;
#X restore 26 213 pd effects;
#N canvas 0 0 454 304 input 0;
#X obj 8 107 outlet;
#X obj 8 58 poly 8 0;
#X obj 8 82 pack 0 0 0;
#X obj 8 10 notein;
#X obj 8 35 pack 0 0;
#X connect 1 0 2 0;
#X connect 1 1 2 1;
#X connect 1 2 2 2;
#X connect 2 0 0 0;
#X connect 3 0 4 0;
#X connect 3 1 4 1;
#X connect 4 0 1 0;
#X restore 27 164 pd input;
#X connect 0 0 1 0;
#X connect 0 0 1 1;
#X connect 2 0 0 1;
#X connect 4 0 19 0;
#X connect 19 0 5 0;
#X connect 19 0 0 0;
#X connect 20 0 4 0;
