#N canvas 111 39 868 627 12;
#X obj 269 23 inlet;
#X obj 109 400 *~;
#X obj 269 51 unpack;
#X obj 107 345 +~;
#X obj 156 349 *~;
#X obj 156 322 osc~;
#X obj 108 372 osc~;
#X obj 156 296 r modf;
#X obj 187 349 r modd;
#X obj 180 565 outlet~;
#X obj 269 119 mtof;
#X obj 261 404 *~;
#X obj 260 173 osc~;
#X obj 299 173 * 2;
#X obj 375 175 * 3;
#X obj 439 174 * 4;
#X obj 299 196 osc~;
#X obj 375 198 osc~;
#X obj 439 197 osc~;
#X obj 523 200 osc~;
#X obj 523 177 * 5;
#X obj 300 268 *~;
#X obj 439 271 *~;
#X obj 523 271 *~;
#X obj 375 268 *~;
#X obj 319 244 / 100;
#X obj 542 244 / 100;
#X obj 458 247 / 100;
#X obj 394 243 / 100;
#X obj 261 306 +~;
#X obj 262 329 +~;
#X obj 262 352 +~;
#X obj 262 377 +~;
#X obj 127 429 r tog1;
#X obj 262 526 *~;
#X obj 108 529 *~;
#X obj 281 428 r tog2;
#X obj 281 453 f;
#X obj 127 455 f;
#X obj 159 455 sel 1;
#X floatatom 159 481 1 0 0 0 - - -;
#X obj 194 479 bng 15 250 50 0 empty empty empty 17 7 0 10 -262144
-1 -1;
#X obj 312 453 sel 1;
#X floatatom 312 477 1 0 0 0 - - -;
#X obj 347 497 bng 15 250 50 0 empty empty empty 17 7 0 10 -262144
-1 -1;
#X floatatom 300 524 5 0 0 0 - - -;
#X floatatom 151 532 5 0 0 0 - - -;
#X obj 157 375 ADSR;
#X obj 750 196 ADSR;
#X obj 319 221 r 2n;
#X obj 394 220 r 3r;
#X obj 458 223 r 4t;
#X obj 542 222 r 5t;
#X obj 201 23 r pbend;
#X obj 201 50 t b f;
#X obj 269 89 +;
#X connect 0 0 2 0;
#X connect 1 0 35 0;
#X connect 2 0 55 0;
#X connect 2 1 47 0;
#X connect 2 1 48 0;
#X connect 3 0 6 0;
#X connect 4 0 3 1;
#X connect 5 0 4 0;
#X connect 6 0 1 0;
#X connect 7 0 5 0;
#X connect 8 0 4 1;
#X connect 10 0 3 0;
#X connect 10 0 12 0;
#X connect 10 0 13 0;
#X connect 10 0 14 0;
#X connect 10 0 15 0;
#X connect 10 0 20 0;
#X connect 11 0 34 0;
#X connect 12 0 29 0;
#X connect 13 0 16 0;
#X connect 14 0 17 0;
#X connect 15 0 18 0;
#X connect 16 0 21 0;
#X connect 17 0 24 0;
#X connect 18 0 22 0;
#X connect 19 0 23 0;
#X connect 20 0 19 0;
#X connect 21 0 29 1;
#X connect 22 0 31 1;
#X connect 23 0 32 1;
#X connect 24 0 30 1;
#X connect 25 0 21 1;
#X connect 26 0 23 1;
#X connect 27 0 22 1;
#X connect 28 0 24 1;
#X connect 29 0 30 0;
#X connect 30 0 31 0;
#X connect 31 0 32 0;
#X connect 32 0 11 0;
#X connect 33 0 38 0;
#X connect 33 0 39 0;
#X connect 34 0 9 0;
#X connect 35 0 9 0;
#X connect 36 0 37 0;
#X connect 36 0 42 0;
#X connect 37 0 45 0;
#X connect 37 0 34 1;
#X connect 38 0 35 1;
#X connect 38 0 46 0;
#X connect 39 0 40 0;
#X connect 39 1 41 0;
#X connect 40 0 34 1;
#X connect 40 0 45 0;
#X connect 41 0 37 0;
#X connect 42 0 43 0;
#X connect 42 1 44 0;
#X connect 43 0 35 1;
#X connect 43 0 46 0;
#X connect 44 0 38 0;
#X connect 47 0 1 1;
#X connect 48 0 11 1;
#X connect 49 0 25 0;
#X connect 50 0 28 0;
#X connect 51 0 27 0;
#X connect 52 0 26 0;
#X connect 53 0 54 0;
#X connect 54 0 55 0;
#X connect 54 1 55 1;
#X connect 55 0 10 0;
